<?xml version="1.0" encoding="UTF-8"?>
<svg version="1.1" xmlns="http://www.w3.org/2000/svg" width="500" height="500">
<path d="M0 0 C165 0 330 0 500 0 C500 165 500 330 500 500 C335 500 170 500 0 500 C0 335 0 170 0 0 Z " fill="#FEFEFE" transform="translate(0,0)"/>
<path d="M0 0 C4.01569782 3.34086064 7.21469174 6.56204396 8.8828125 11.56640625 C8.97391671 14.19813985 9.00885286 16.80281807 8.99633789 19.43432617 C8.99648392 20.23455704 8.99662994 21.0347879 8.9967804 21.85926819 C8.99608355 24.50516467 8.98830179 27.15099081 8.98046875 29.796875 C8.97860376 31.63104718 8.97718024 33.46521985 8.97618103 35.2993927 C8.97236222 40.12777074 8.96253734 44.95611871 8.95147705 49.78448486 C8.94124927 54.71113681 8.93668048 59.63779362 8.93164062 64.56445312 C8.92091453 74.23178617 8.90332285 83.89908901 8.8828125 93.56640625 C0.9628125 93.56640625 -6.9571875 93.56640625 -15.1171875 93.56640625 C-15.6121875 89.11140625 -15.6121875 89.11140625 -16.1171875 84.56640625 C-16.93703125 85.70142578 -16.93703125 85.70142578 -17.7734375 86.859375 C-22.24365335 92.0224743 -28.51144343 94.96242141 -35.21875 96.0859375 C-44.14685714 96.3973831 -51.4666071 93.92446992 -58.4921875 88.44140625 C-64.83078188 82.35943513 -66.33760609 75.7347715 -66.6171875 67.12890625 C-66.34249921 57.74214426 -63.86341412 48.4334093 -57.1171875 41.56640625 C-46.08206194 32.3370285 -29.09902565 28.06120482 -15.1171875 25.56640625 C-15.03625927 16.45098748 -15.03625927 16.45098748 -18.2421875 8.19140625 C-22.00248044 6.06602328 -23.844443 5.84221227 -28.1171875 6.56640625 C-36.63825556 10.16639237 -41.42526096 17.36212505 -45.1171875 25.56640625 C-47.4271875 25.56640625 -49.7371875 25.56640625 -52.1171875 25.56640625 C-52.7771875 19.95640625 -53.4371875 14.34640625 -54.1171875 8.56640625 C-39.87617976 -1.6396493 -16.59848616 -10.44098323 0 0 Z " fill="#65677C" transform="translate(168.1171875,42.43359375)"/>
<path d="M0 0 C1.32161133 -0.0299707 1.32161133 -0.0299707 2.66992188 -0.06054688 C10.3548709 -0.05487533 16.41497509 1.87492454 22.3125 6.875 C26.67023457 12.12991521 27.87495351 15.81476782 27.77807617 22.62426758 C27.77873329 23.83968231 27.77873329 23.83968231 27.77940369 25.07965088 C27.77732024 27.74735948 27.75401045 30.41443297 27.73046875 33.08203125 C27.72487121 34.93576209 27.72060186 36.78949738 27.71760559 38.64323425 C27.70616927 43.5144381 27.67671248 48.38537221 27.64349365 53.25646973 C27.61276665 58.23018749 27.59909463 63.20394898 27.58398438 68.17773438 C27.55184159 77.93112697 27.49908352 87.68424882 27.4375 97.4375 C19.5175 97.4375 11.5975 97.4375 3.4375 97.4375 C2.9425 93.4775 2.9425 93.4775 2.4375 89.4375 C1.72787109 90.14326172 1.72787109 90.14326172 1.00390625 90.86328125 C-5.40554591 96.89791165 -11.07346007 99.44431026 -19.875 99.9375 C-27.03428386 99.706231 -34.03196207 97.42594746 -39.546875 92.7578125 C-46.34347842 85.18733839 -47.88919107 77.23349185 -47.78125 67.31640625 C-47.09043083 58.22473256 -43.58592855 51.13835246 -37 44.875 C-28.71994565 37.97495471 -18.56786316 35.38252055 -8.3828125 32.55078125 C-4.69000268 31.54496149 -4.69000268 31.54496149 -1.7421875 30.29296875 C0.4375 29.4375 0.4375 29.4375 3.4375 29.4375 C3.47758213 20.34255019 3.47758213 20.34255019 0.4375 12 C-3.17521958 10.11837522 -5.25818568 9.95945766 -9.22265625 10.671875 C-15.95542641 12.87491833 -20.12749624 17.55739195 -23.65234375 23.5078125 C-24.57788052 25.47010935 -25.1152781 27.31908049 -25.5625 29.4375 C-27.8725 29.4375 -30.1825 29.4375 -32.5625 29.4375 C-34.7208195 23.36722642 -34.77102314 17.84379424 -34.5625 11.4375 C-32.44487397 10.15288825 -30.31956754 8.88525939 -28.1875 7.625 C-27.31158203 7.09036133 -27.31158203 7.09036133 -26.41796875 6.54492188 C-17.98791743 1.60473051 -9.70244325 -0.07841798 0 0 Z " fill="#65677C" transform="translate(298.5625,389.5625)"/>
<path d="M0 0 C1.32161133 -0.0299707 1.32161133 -0.0299707 2.66992188 -0.06054688 C10.3548709 -0.05487533 16.41497509 1.87492454 22.3125 6.875 C26.67023457 12.12991521 27.87495351 15.81476782 27.77807617 22.62426758 C27.77873329 23.83968231 27.77873329 23.83968231 27.77940369 25.07965088 C27.77732024 27.74735948 27.75401045 30.41443297 27.73046875 33.08203125 C27.72487121 34.93576209 27.72060186 36.78949738 27.71760559 38.64323425 C27.70616927 43.5144381 27.67671248 48.38537221 27.64349365 53.25646973 C27.61276665 58.23018749 27.59909463 63.20394898 27.58398438 68.17773438 C27.55184159 77.93112697 27.49908352 87.68424882 27.4375 97.4375 C19.5175 97.4375 11.5975 97.4375 3.4375 97.4375 C2.9425 93.4775 2.9425 93.4775 2.4375 89.4375 C1.72787109 90.14326172 1.72787109 90.14326172 1.00390625 90.86328125 C-5.40554591 96.89791165 -11.07346007 99.44431026 -19.875 99.9375 C-27.03428386 99.706231 -34.03196207 97.42594746 -39.546875 92.7578125 C-46.34347842 85.18733839 -47.88919107 77.23349185 -47.78125 67.31640625 C-47.09043083 58.22473256 -43.58592855 51.13835246 -37 44.875 C-28.71994565 37.97495471 -18.56786316 35.38252055 -8.3828125 32.55078125 C-4.69000268 31.54496149 -4.69000268 31.54496149 -1.7421875 30.29296875 C0.4375 29.4375 0.4375 29.4375 3.4375 29.4375 C3.47758213 20.34255019 3.47758213 20.34255019 0.4375 12 C-3.17521958 10.11837522 -5.25818568 9.95945766 -9.22265625 10.671875 C-15.95542641 12.87491833 -20.12749624 17.55739195 -23.65234375 23.5078125 C-24.57788052 25.47010935 -25.1152781 27.31908049 -25.5625 29.4375 C-27.8725 29.4375 -30.1825 29.4375 -32.5625 29.4375 C-34.7208195 23.36722642 -34.77102314 17.84379424 -34.5625 11.4375 C-32.44487397 10.15288825 -30.31956754 8.88525939 -28.1875 7.625 C-27.31158203 7.09036133 -27.31158203 7.09036133 -26.41796875 6.54492188 C-17.98791743 1.60473051 -9.70244325 -0.07841798 0 0 Z " fill="#65677C" transform="translate(325.5625,214.5625)"/>
<path d="M0 0 C4.22520772 3.01550094 7.23791141 6.40904673 8.8828125 11.34375 C8.97397585 14.00597191 9.00884323 16.64145913 8.99633789 19.3034668 C8.99648392 20.11345123 8.99662994 20.92343567 8.9967804 21.75796509 C8.9960835 24.43632685 8.98830153 27.11461913 8.98046875 29.79296875 C8.97860378 31.64956118 8.97718025 33.5061541 8.97618103 35.36274719 C8.9723621 40.25030881 8.96253711 45.13784074 8.95147705 50.02539062 C8.94124954 55.01236571 8.93668053 59.99934558 8.93164062 64.98632812 C8.92091431 74.77215057 8.90332253 84.55794317 8.8828125 94.34375 C0.9628125 94.34375 -6.9571875 94.34375 -15.1171875 94.34375 C-15.6121875 90.38375 -15.6121875 90.38375 -16.1171875 86.34375 C-16.82681641 87.04951172 -16.82681641 87.04951172 -17.55078125 87.76953125 C-24.012081 93.85297721 -29.67471238 96.38102577 -38.5546875 96.78125 C-45.77907964 96.55864968 -51.41324317 94.0783558 -57.4296875 90.21875 C-64.04173224 83.14539982 -65.57661291 76.78595012 -65.6796875 67.28125 C-65.69435059 66.44263428 -65.70901367 65.60401855 -65.72412109 64.73999023 C-65.58242074 56.02029651 -62.37220705 48.58205517 -56.375 42.24609375 C-46.88379493 34.24917875 -27.66268687 26.34375 -15.1171875 26.34375 C-15.15030123 23.92343755 -15.21751539 21.51221713 -15.3046875 19.09375 C-15.31048828 18.41183594 -15.31628906 17.72992188 -15.32226562 17.02734375 C-15.4840983 13.32317372 -15.85814901 11.62496644 -18.3984375 8.8671875 C-21.99479993 6.85198441 -23.82528554 6.93891245 -27.78125 7.62890625 C-33.44746872 9.36288288 -36.9193738 12.33888059 -39.94921875 17.41015625 C-41.43404884 20.35547495 -42.82163846 23.31098746 -44.1171875 26.34375 C-46.4271875 26.34375 -48.7371875 26.34375 -51.1171875 26.34375 C-52.60849359 23.36113782 -52.69449594 20.24335721 -52.9921875 16.96875 C-53.07726562 16.29585937 -53.16234375 15.62296875 -53.25 14.9296875 C-53.421875 12.9453125 -53.421875 12.9453125 -53.1171875 9.34375 C-50.04432125 6.04493771 -46.25676453 4.2103973 -42.2421875 2.21875 C-41.25476563 1.72117188 -40.26734375 1.22359375 -39.25 0.7109375 C-28.13414474 -4.14012153 -11.16690542 -5.60346508 0 0 Z " fill="#65677D" transform="translate(189.1171875,217.65625)"/>
<path d="M0 0 C7.92 0 15.84 0 24 0 C24.33 10.89 24.66 21.78 25 33 C27.31 30.69 29.62 28.38 32 26 C40.61848641 19.76077269 48.35880691 17.08367504 59 18 C65.1254496 19.05281165 68.87733215 21.18340596 72.80859375 25.98828125 C75.87197644 31.16087826 76.28455205 36.23236234 76.22705078 42.11669922 C76.22734283 42.90761459 76.22763489 43.69852997 76.22793579 44.51341248 C76.22654973 47.1106183 76.21102287 49.70753219 76.1953125 52.3046875 C76.19157979 54.11215051 76.18873404 55.91961554 76.18673706 57.7270813 C76.1791209 62.47161499 76.1594898 67.21602517 76.1373291 71.96051025 C76.11682715 76.80698984 76.10772605 81.65348949 76.09765625 86.5 C76.07624194 96.00006284 76.04107629 105.5000018 76 115 C68.08 115 60.16 115 52 115 C51.98541748 112.66333252 51.97083496 110.32666504 51.95581055 107.91918945 C51.90545613 100.19574305 51.83885954 92.47249808 51.76428509 84.74924946 C51.71957227 80.06698136 51.68031815 75.38480046 51.65356445 70.70239258 C51.62754056 66.18294164 51.58714465 61.66382607 51.53681374 57.14458275 C51.52013883 55.42107505 51.50862843 53.69750933 51.50238609 51.97393227 C51.49275168 49.55819226 51.46470127 47.14331145 51.43237305 44.7277832 C51.43380814 44.01640198 51.43524323 43.30502075 51.4367218 42.57208252 C51.35511279 38.25555548 50.78020245 35.36210818 48 32 C43.93889278 31.24284442 41.60751861 31.15956727 37.9453125 33.07421875 C35.81510907 34.58691185 33.94351327 36.25452309 32 38 C31.37826401 38.50611816 30.75652802 39.01223633 30.11595154 39.53369141 C25.62713837 43.74214104 24.48989495 47.11728959 24.11352539 53.2421875 C24.0475979 56.12141515 24.06827662 58.99540086 24.09765625 61.875 C24.08826025 63.4105846 24.07579573 64.94615319 24.06040955 66.48168945 C24.02830914 70.4998585 24.03757927 74.51688124 24.05578613 78.53509521 C24.06697958 82.64461604 24.03860649 86.75384893 24.01367188 90.86328125 C23.97062872 98.90918221 23.97499873 106.95402248 24 115 C16.08 115 8.16 115 0 115 C0 77.05 0 39.1 0 0 Z " fill="#64667C" transform="translate(167,372)"/>
<path d="M0 0 C7.92 0 15.84 0 24 0 C24.33 10.89 24.66 21.78 25 33 C27.31 30.69 29.62 28.38 32 26 C40.61848641 19.76077269 48.35880691 17.08367504 59 18 C65.1254496 19.05281165 68.87733215 21.18340596 72.80859375 25.98828125 C75.87197644 31.16087826 76.28455205 36.23236234 76.22705078 42.11669922 C76.22734283 42.90761459 76.22763489 43.69852997 76.22793579 44.51341248 C76.22654973 47.1106183 76.21102287 49.70753219 76.1953125 52.3046875 C76.19157979 54.11215051 76.18873404 55.91961554 76.18673706 57.7270813 C76.1791209 62.47161499 76.1594898 67.21602517 76.1373291 71.96051025 C76.11682715 76.80698984 76.10772605 81.65348949 76.09765625 86.5 C76.07624194 96.00006284 76.04107629 105.5000018 76 115 C68.08 115 60.16 115 52 115 C51.98541748 112.66333252 51.97083496 110.32666504 51.95581055 107.91918945 C51.90545613 100.19574305 51.83885954 92.47249808 51.76428509 84.74924946 C51.71957227 80.06698136 51.68031815 75.38480046 51.65356445 70.70239258 C51.62754056 66.18294164 51.58714465 61.66382607 51.53681374 57.14458275 C51.52013883 55.42107505 51.50862843 53.69750933 51.50238609 51.97393227 C51.49275168 49.55819226 51.46470127 47.14331145 51.43237305 44.7277832 C51.43380814 44.01640198 51.43524323 43.30502075 51.4367218 42.57208252 C51.35511279 38.25555548 50.78020245 35.36210818 48 32 C43.93889278 31.24284442 41.60751861 31.15956727 37.9453125 33.07421875 C35.81510907 34.58691185 33.94351327 36.25452309 32 38 C31.37826401 38.50611816 30.75652802 39.01223633 30.11595154 39.53369141 C25.62713837 43.74214104 24.48989495 47.11728959 24.11352539 53.2421875 C24.0475979 56.12141515 24.06827662 58.99540086 24.09765625 61.875 C24.08826025 63.4105846 24.07579573 64.94615319 24.06040955 66.48168945 C24.02830914 70.4998585 24.03757927 74.51688124 24.05578613 78.53509521 C24.06697958 82.64461604 24.03860649 86.75384893 24.01367188 90.86328125 C23.97062872 98.90918221 23.97499873 106.95402248 24 115 C16.08 115 8.16 115 0 115 C0 77.05 0 39.1 0 0 Z " fill="#64667C" transform="translate(187,21)"/>
<path d="M0 0 C5.77710693 3.89793646 8.21294674 9.50212148 10.3515625 15.91796875 C10.44254475 18.48873404 10.47762288 21.0317791 10.46508789 23.60229492 C10.46523392 24.38301865 10.46537994 25.16374237 10.4655304 25.96812439 C10.46483364 28.54909034 10.45705232 31.12998415 10.44921875 33.7109375 C10.44735373 35.50026917 10.44593022 37.28960135 10.44493103 39.07893372 C10.44111249 43.78894459 10.43128783 48.49892464 10.42022705 53.20892334 C10.40999871 58.01492903 10.40543036 62.82093969 10.40039062 67.62695312 C10.38966499 77.05730739 10.37207352 86.48763068 10.3515625 95.91796875 C2.4315625 95.91796875 -5.4884375 95.91796875 -13.6484375 95.91796875 C-13.66302002 93.5510083 -13.67760254 91.18404785 -13.69262695 88.74536133 C-13.74297945 80.92213175 -13.80957571 73.09910107 -13.88415241 65.27606678 C-13.92886684 60.5332643 -13.96812062 55.79054793 -13.99487305 51.04760742 C-14.02089531 46.46980405 -14.0612901 41.89233187 -14.11162376 37.31473351 C-14.12829977 35.56889658 -14.13980948 33.82300235 -14.14605141 32.07709694 C-14.15568461 29.6302283 -14.18373369 27.18420834 -14.21606445 24.73754883 C-14.21462936 24.01681686 -14.21319427 23.2960849 -14.2117157 22.55351257 C-14.29284868 18.20771708 -14.89007089 15.32892397 -17.6484375 11.91796875 C-21.62225265 10.94478953 -23.4641846 11.30398209 -27.08203125 13.1796875 C-33.08773679 17.10122125 -38.26306645 21.5028778 -41.6484375 27.91796875 C-42.6493868 33.17266077 -42.6061164 38.34860006 -42.55078125 43.671875 C-42.56018029 45.18361043 -42.57264667 46.69532959 -42.58802795 48.20701599 C-42.62008826 52.15777355 -42.61087306 56.10736363 -42.59265137 60.0581665 C-42.58144657 64.10075373 -42.6098419 68.14304952 -42.63476562 72.18554688 C-42.67777492 80.09668798 -42.67345396 88.00675003 -42.6484375 95.91796875 C-50.5684375 95.91796875 -58.4884375 95.91796875 -66.6484375 95.91796875 C-66.6484375 64.23796875 -66.6484375 32.55796875 -66.6484375 -0.08203125 C-58.3984375 -0.08203125 -50.1484375 -0.08203125 -41.6484375 -0.08203125 C-41.1534375 6.84796875 -41.1534375 6.84796875 -40.6484375 13.91796875 C-39.6171875 12.74234375 -38.5859375 11.56671875 -37.5234375 10.35546875 C-27.79622367 0.7818425 -13.44434386 -5.49274816 0 0 Z " fill="#65677D" transform="translate(453.6484375,40.08203125)"/>
<path d="M0 0 C2.49371948 1.51177328 4.15318082 2.76798824 6.0078125 4.984375 C6.48734375 5.53738281 6.966875 6.09039062 7.4609375 6.66015625 C10.73025806 11.73154205 11.04228319 16.91256362 10.98486328 22.78857422 C10.98515533 23.57948959 10.98544739 24.37040497 10.98574829 25.18528748 C10.98436223 27.7824933 10.96883537 30.37940719 10.953125 32.9765625 C10.94939229 34.78402551 10.94654654 36.59149054 10.94454956 38.3989563 C10.9369334 43.14348999 10.9173023 47.88790017 10.8951416 52.63238525 C10.87463965 57.47886484 10.86553855 62.32536449 10.85546875 67.171875 C10.83405444 76.67193784 10.79888879 86.1718768 10.7578125 95.671875 C2.8378125 95.671875 -5.0821875 95.671875 -13.2421875 95.671875 C-13.26724365 93.26938477 -13.2922998 90.86689453 -13.31811523 88.39160156 C-13.40156534 80.45668715 -13.49025437 72.52183753 -13.58152676 64.58700943 C-13.6367077 59.77580287 -13.69012002 54.96459017 -13.73950195 50.15332031 C-13.78721668 45.51080811 -13.8395621 40.86836916 -13.89512825 36.22594452 C-13.91551958 34.45413791 -13.93423796 32.68231123 -13.95126152 30.91046906 C-13.97537686 28.43014777 -14.00542164 25.94996426 -14.03686523 23.46972656 C-14.04549843 22.36920959 -14.04549843 22.36920959 -14.05430603 21.24645996 C-14.10228731 17.92005393 -14.21730724 14.85408536 -15.2421875 11.671875 C-21.4468693 10.99500062 -24.89965143 11.92124467 -29.86889648 15.74647522 C-37.27859288 21.64918591 -37.27859288 21.64918591 -40.97851562 30.14089966 C-41.26266244 34.32940135 -41.30023679 38.45011689 -41.2421875 42.64453125 C-41.24971773 44.17868602 -41.26076202 45.71282717 -41.27514648 47.24693298 C-41.30342063 51.2570575 -41.28439855 55.26557313 -41.25506592 59.27563477 C-41.23357577 63.37852139 -41.25744599 67.48112667 -41.27734375 71.58398438 C-41.30967903 79.61380574 -41.28778413 87.64211764 -41.2421875 95.671875 C-49.1621875 95.671875 -57.0821875 95.671875 -65.2421875 95.671875 C-65.2421875 63.991875 -65.2421875 32.311875 -65.2421875 -0.328125 C-57.3221875 -0.328125 -49.4021875 -0.328125 -41.2421875 -0.328125 C-40.7471875 6.601875 -40.7471875 6.601875 -40.2421875 13.671875 C-38.8396875 12.310625 -37.4371875 10.949375 -35.9921875 9.546875 C-25.88372618 0.57260289 -13.53072578 -5.54270694 0 0 Z " fill="#64667C" transform="translate(401.2421875,391.328125)"/>
<path d="M0 0 C7.92 0 15.84 0 24 0 C24.33 18.48 24.66 36.96 25 56 C27.31 53.36 29.62 50.72 32 48 C32.95003906 46.91976562 33.90007812 45.83953125 34.87890625 44.7265625 C44.70361947 33.60385287 44.70361947 33.60385287 50 20 C55.28 20 60.56 20 66 20 C61.80237659 25.94663316 57.1268757 31.23544868 52.13964844 36.51831055 C49.86798157 38.93240962 47.8437038 41.2344443 46 44 C46.34582661 47.84568701 47.74082758 50.72766386 49.58984375 54.078125 C50.1223877 55.06216309 50.65493164 56.04620117 51.20361328 57.06005859 C51.7757959 58.11273926 52.34797852 59.16541992 52.9375 60.25 C57.65396812 69.11800382 61.91025605 78.04113148 65.625 87.375 C66.22622681 88.87788574 66.22622681 88.87788574 66.83959961 90.41113281 C70.1366076 98.89259206 73 106.83876628 73 116 C65.08 116 57.16 116 49 116 C48.62875 113.89625 48.2575 111.7925 47.875 109.625 C44.69165132 93.29067936 38.28994349 78.67079785 30.82275391 63.86914062 C30 62 30 62 30 60 C27.30421271 61.21258533 27.30421271 61.21258533 25 64 C24.20183223 67.90433766 24.27897467 71.79159242 24.29296875 75.765625 C24.27784744 76.91415955 24.26272614 78.06269409 24.24714661 79.24603271 C24.20416077 82.91421983 24.19542055 86.58158576 24.1875 90.25 C24.16436435 92.73700117 24.13900098 95.22398268 24.11132812 97.7109375 C24.04417373 103.80774246 24.02332245 109.90223902 24 116 C16.08 116 8.16 116 0 116 C0 77.72 0 39.44 0 0 Z " fill="#65677D" transform="translate(88,371)"/>
<path d="M0 0 C4.96111083 2.94372966 9.44749184 5.92363697 12.82421875 10.67578125 C13.41927636 13.98954245 12.80078481 16.49598688 11.82421875 19.67578125 C11.54578125 21.43921875 11.54578125 21.43921875 11.26171875 23.23828125 C11.11734375 24.04265625 10.97296875 24.84703125 10.82421875 25.67578125 C7.85421875 25.67578125 4.88421875 25.67578125 1.82421875 25.67578125 C1.54449219 25.03511719 1.26476562 24.39445312 0.9765625 23.734375 C-3.07335596 14.99644804 -7.76365533 8.93378992 -16.90625 5.3359375 C-21.78527638 3.91673706 -25.54042505 3.82403323 -30.17578125 6.23828125 C-32.41023589 8.5934923 -32.41023589 8.5934923 -32.92578125 11.92578125 C-31.71673471 17.97101397 -27.71377112 21.82703848 -22.79345703 25.41113281 C-20.18255538 27.06218101 -17.5381891 28.63072966 -14.86328125 30.17578125 C10.1978283 45.19212833 10.1978283 45.19212833 15.82421875 58.67578125 C17.05234348 67.88671676 16.4109674 76.07437388 10.82421875 83.67578125 C5.40961587 90.34444747 -3.15106548 93.98185429 -11.5625 94.95068359 C-21.19687473 95.60908171 -30.65009073 95.73845933 -39.17578125 90.67578125 C-40.75359375 89.80953125 -40.75359375 89.80953125 -42.36328125 88.92578125 C-51.58723763 81.54661614 -51.58723763 81.54661614 -52.6875 76.1796875 C-52.78883974 71.0581327 -51.85132575 66.4929717 -50.17578125 61.67578125 C-47.53578125 61.67578125 -44.89578125 61.67578125 -42.17578125 61.67578125 C-41.75167969 62.60519531 -41.32757813 63.53460938 -40.890625 64.4921875 C-36.45359159 73.95427948 -32.09488782 81.56649993 -22.15234375 86.01953125 C-17.66053026 87.51088434 -14.27292287 87.0977588 -9.92578125 85.42578125 C-7.14001612 83.65302162 -5.90051882 82.44326847 -4.17578125 79.67578125 C-3.24696077 75.44208791 -3.35003534 71.39381669 -5.2421875 67.45703125 C-10.823768 59.54852482 -19.42902694 54.81115778 -27.55078125 49.86328125 C-38.78866099 42.86309787 -47.82768013 36.7200846 -52.17578125 23.67578125 C-52.95246045 17.2204312 -52.15749675 11.91712793 -48.17578125 6.67578125 C-35.65767624 -5.5963885 -15.72828531 -7.29874678 0 0 Z " fill="#65677D" transform="translate(325.17578125,42.32421875)"/>
<path d="M0 0 C0.76441406 -0.02449219 1.52882812 -0.04898438 2.31640625 -0.07421875 C8.24962511 -0.10443888 11.99293402 1.41734011 17.125 4.375 C16.6503725 6.6884359 16.17017721 9.00073019 15.6875 11.3125 C15.42066406 12.60027344 15.15382812 13.88804687 14.87890625 15.21484375 C14.125 18.375 14.125 18.375 13.125 19.375 C10.0625 19.875 10.0625 19.875 6.125 19.375 C3.94403469 17.69733437 2.03367245 15.84718197 0.0546875 13.9375 C-1.91542245 12.07024228 -1.91542245 12.07024228 -5.3125 11.875 C-7.7986509 12.11245077 -7.7986509 12.11245077 -8.875 13.375 C-8.74352775 20.47450141 -6.0108793 28.2391207 -0.875 33.375 C1.47487262 33.61027773 3.83056039 33.78886417 6.1875 33.9375 C7.47785156 34.02128906 8.76820312 34.10507813 10.09765625 34.19140625 C11.59619141 34.28228516 11.59619141 34.28228516 13.125 34.375 C13.125 37.345 13.125 40.315 13.125 43.375 C8.505 43.375 3.885 43.375 -0.875 43.375 C-0.875 72.085 -0.875 100.795 -0.875 130.375 C-8.795 130.375 -16.715 130.375 -24.875 130.375 C-24.875 101.995 -24.875 73.615 -24.875 44.375 C-28.505 44.375 -32.135 44.375 -35.875 44.375 C-35.875 41.075 -35.875 37.775 -35.875 34.375 C-30.925 33.88 -30.925 33.88 -25.875 33.375 C-26.37 32.42625 -26.865 31.4775 -27.375 30.5 C-29.61748831 25.16330907 -30.07837722 19.65958034 -28.06640625 14.16796875 C-24.52196449 7.75363297 -18.79184501 4.01122138 -12.14453125 1.234375 C-8.03080983 0.15311011 -4.23543555 0.00707084 0 0 Z " fill="#65677D" transform="translate(105.875,181.625)"/>
<path d="M0 0 C23.76 0 47.52 0 72 0 C62.69062801 18.61874398 62.69062801 18.61874398 57.8125 27.5625 C57.26352051 28.57352783 56.71454102 29.58455566 56.14892578 30.6262207 C51.77871526 38.64449337 47.28236364 46.58774864 42.75976562 54.52075195 C38.4748512 62.07232505 34.40442015 69.72353605 30.42529297 77.44018555 C30.0026416 78.25914307 29.57999023 79.07810059 29.14453125 79.921875 C28.59309448 80.99840332 28.59309448 80.99840332 28.03051758 82.09667969 C27 84 27 84 25 87 C28.79247962 86.91802737 32.58347719 86.80529057 36.375 86.6875 C37.43589844 86.66494141 38.49679687 86.64238281 39.58984375 86.61914062 C49.39305144 86.28835754 57.86949821 85.13050179 65 78 C65.33 77.34 65.66 76.68 66 76 C68.31 76 70.62 76 73 76 C72.33144463 82.79697957 71.23030117 89.23334355 70 96 C45.58 96 21.16 96 -4 96 C0.81207193 86.37585614 5.62081051 76.82201548 10.75 67.375 C11.34925293 66.26672852 11.94850586 65.15845703 12.56591797 64.01660156 C17.84660568 54.25883937 23.15686907 44.51716502 28.47949219 34.78222656 C31.23967397 29.73164346 33.99443209 24.67810139 36.75 19.625 C37.76560321 17.76300895 38.78122608 15.90102862 39.796875 14.0390625 C40.22323242 13.25740723 40.64958984 12.47575195 41.08886719 11.67041016 C41.38954102 11.1191748 41.69021484 10.56793945 42 10 C38.373887 10.05259179 34.75002788 10.14782397 31.125 10.25 C30.11179687 10.26417969 29.09859375 10.27835938 28.0546875 10.29296875 C20.91298381 10.52186951 15.46102739 12.02365793 9 15 C8.01 15.33 7.02 15.66 6 16 C4.79117904 18.00016466 4.79117904 18.00016466 4 20 C1.69 20 -0.62 20 -3 20 C-2.69140975 17.22867983 -2.3782967 14.45800014 -2.0625 11.6875 C-1.97548828 10.90181641 -1.88847656 10.11613281 -1.79882812 9.30664062 C-1.71181641 8.54931641 -1.62480469 7.79199219 -1.53515625 7.01171875 C-1.41732788 5.96697388 -1.41732788 5.96697388 -1.29711914 4.90112305 C-1 3 -1 3 0 0 Z " fill="#66687D" transform="translate(362,216)"/>
<path d="M0 0 C3.3 0 6.6 0 10 0 C10 9.24 10 18.48 10 28 C17.26 28 24.52 28 32 28 C32 31.3 32 34.6 32 38 C24.74 38 17.48 38 10 38 C10.08581096 46.05890472 10.17971862 54.11759409 10.28752708 62.17623043 C10.33728112 65.91896359 10.38361127 69.66167135 10.421875 73.40454102 C10.45899395 77.02271273 10.50542233 80.6406604 10.55806351 84.25863838 C10.57646722 85.63274736 10.59162578 87.0069041 10.60334396 88.38108635 C10.65304525 103.10420336 10.65304525 103.10420336 17 116 C21.21282534 115.91574349 24.13538182 115.42711818 27.125 112.4375 C31.64141514 106.68271297 33.11725377 98.93950271 35 92 C37.31 92 39.62 92 42 92 C42.33868777 94.20751848 42.67071689 96.41605911 43 98.625 C43.185625 99.85476562 43.37125 101.08453125 43.5625 102.3515625 C44.58318642 110.86335822 44.58318642 110.86335822 43.00390625 113.94140625 C38.21820376 119.32370038 32.24556736 123.74324672 25 125 C11.50927698 125.7666859 2.67684301 124.89944652 -7.73828125 115.7421875 C-14.53632559 107.49999902 -14.54506819 98.92667414 -14.390625 88.68359375 C-14.38315046 87.21672848 -14.37746327 85.74985313 -14.37347412 84.28297424 C-14.35831285 80.45067024 -14.31911576 76.61898741 -14.2746582 72.78692627 C-14.23349804 68.86519774 -14.21541916 64.94336735 -14.1953125 61.02148438 C-14.15260999 53.34737524 -14.08447718 45.67377516 -14 38 C-16.64 38 -19.28 38 -22 38 C-22 34.7 -22 31.4 -22 28 C-20.659375 28.04125 -19.31875 28.0825 -17.9375 28.125 C-14.79178992 27.75956429 -13.36251686 27.336061 -11.01953125 25.1640625 C-5.53016704 17.67526099 -2.23990176 8.95960704 0 0 Z " fill="#65677D" transform="translate(54,12)"/>
<path d="M0 0 C7.92 0 15.84 0 24 0 C24 9.9 24 19.8 24 30 C24.66 30 25.32 30 26 30 C26.27763184 29.41516846 26.55526367 28.83033691 26.84130859 28.2277832 C32.263875 17.8019681 41.34755233 5.22821278 52.625 1.0625 C56.39724317 -0.10843794 58.76095483 0 63 0 C63 6.6 63 13.2 63 20 C61.30875 20.185625 59.6175 20.37125 57.875 20.5625 C45.59491913 22.64779675 35.45183715 28.9893637 27 38 C24.77316804 41.34024793 24.7347781 42.48366144 24.68115234 46.3894043 C24.66128265 47.49031906 24.64141296 48.59123383 24.62094116 49.72550964 C24.60361435 51.50687065 24.60361435 51.50687065 24.5859375 53.32421875 C24.56657135 54.54075638 24.5472052 55.75729401 24.5272522 57.01069641 C24.46738979 60.90289257 24.42104382 64.79511819 24.375 68.6875 C24.33682641 71.32358073 24.29777505 73.95964891 24.2578125 76.59570312 C24.16002804 83.0637374 24.08051027 89.53163512 24 96 C16.08 96 8.16 96 0 96 C0 64.32 0 32.64 0 0 Z " fill="#65677C" transform="translate(208,216)"/>
<path d="M0 0 C7.92 0 15.84 0 24 0 C24 31.68 24 63.36 24 96 C16.08 96 8.16 96 0 96 C0 64.32 0 32.64 0 0 Z " fill="#63657B" transform="translate(352,40)"/>
<path d="M0 0 C0.17387466 5.69238902 0.30045498 11.38321189 0.38452148 17.07763672 C0.41958581 19.01183009 0.46725297 20.94583976 0.52807617 22.87939453 C1.0847537 41.03924481 1.0847537 41.03924481 -3.37109375 46.1875 C-5.23999023 47.79296875 -5.23999023 47.79296875 -7 49 C-7.825 49.66 -8.65 50.32 -9.5 51 C-12.91597101 52.3663884 -15.35227557 52.45596555 -19 52 C-23.58363088 49.39566428 -25.47133533 45.91184412 -27 41 C-27.42209995 38.21488798 -27.47821151 35.50104734 -27.4375 32.6875 C-27.42847656 31.94129395 -27.41945313 31.19508789 -27.41015625 30.42626953 C-27.15935172 22.39878273 -25.50987864 16.05846519 -19.625 10.3125 C-15.2538517 6.8288524 -5.79798416 0 0 0 Z " fill="#FCFCFC" transform="translate(153,74)"/>
<path d="M0 0 C0.12389553 5.87150428 0.21447924 11.74224243 0.2746582 17.61474609 C0.29975272 19.61097473 0.33383626 21.60711193 0.37719727 23.60302734 C0.43807246 26.47776888 0.46626024 29.35129248 0.48828125 32.2265625 C0.51408768 33.11429352 0.5398941 34.00202454 0.56648254 34.91665649 C0.56843188 39.25462108 0.38805606 42.09034434 -2.41967773 45.51953125 C-6.52051485 49.46167385 -9.81851657 51.69910573 -15.625 52.5 C-19.77928105 51.88455096 -21.22573697 51.15957733 -24 48 C-28.83708592 38.81147937 -27.68357451 28.38830594 -25.2421875 18.66796875 C-21.8047641 11.2850751 -16.31664855 7.55718066 -9.1875 4.0625 C-8.41212891 3.66482422 -7.63675781 3.26714844 -6.83789062 2.85742188 C-1.21649096 0 -1.21649096 0 0 0 Z " fill="#FCFCFC" transform="translate(302,425)"/>
<path d="M0 0 C0.12389553 5.87150428 0.21447924 11.74224243 0.2746582 17.61474609 C0.29975272 19.61097473 0.33383626 21.60711193 0.37719727 23.60302734 C0.43807246 26.47776888 0.46626024 29.35129248 0.48828125 32.2265625 C0.51408768 33.11429352 0.5398941 34.00202454 0.56648254 34.91665649 C0.56843188 39.25462108 0.38805606 42.09034434 -2.41967773 45.51953125 C-6.52051485 49.46167385 -9.81851657 51.69910573 -15.625 52.5 C-19.77928105 51.88455096 -21.22573697 51.15957733 -24 48 C-28.83708592 38.81147937 -27.68357451 28.38830594 -25.2421875 18.66796875 C-21.8047641 11.2850751 -16.31664855 7.55718066 -9.1875 4.0625 C-8.41212891 3.66482422 -7.63675781 3.26714844 -6.83789062 2.85742188 C-1.21649096 0 -1.21649096 0 0 0 Z " fill="#FCFCFC" transform="translate(329,250)"/>
<path d="M0 0 C0.14886633 5.71074127 0.2574597 11.42034146 0.32958984 17.13256836 C0.35967215 19.07352382 0.40054963 21.01434436 0.45263672 22.95483398 C0.52583255 25.75278065 0.55954101 28.54892336 0.5859375 31.34765625 C0.61690521 32.2083522 0.64787292 33.06904816 0.67977905 33.95582581 C0.6829039 39.61217651 -0.49684028 42.52307628 -4.42123413 46.61888123 C-7.94153463 49.69847219 -10.96534409 50.85478514 -15.5625 51.5 C-19.96305017 50.85991998 -21.26884573 49.43345108 -24 46 C-28.45012186 38.47743049 -27.11859386 25.88320161 -25.23046875 17.640625 C-21.29909138 8.69431041 -12.41110808 4.29866934 -3.8125 0.62890625 C-2 0 -2 0 0 0 Z " fill="#FDFDFD" transform="translate(174,251)"/>
<path d="M0 0 C3.82468048 1.98316766 7.09067421 4.07527477 9 8 C9.73092146 12.71940644 9.4615237 16.0769526 7.3125 20.375 C3.70642257 24.46838519 1.0086876 26.15275985 -4.4375 26.5 C-7.81107644 26.38754745 -9.78676738 25.85499355 -12.4375 23.75 C-16.50465615 19.38524706 -17.50687017 16.13397435 -17.390625 10.25390625 C-16.72027164 6.38596738 -14.81131791 4.68055893 -12 2 C-7.95752375 -0.69498416 -4.7484973 -0.66560133 0 0 Z " fill="#65677C" transform="translate(368,7)"/>
</svg>
