<svg xmlns="http://www.w3.org/2000/svg" xmlns:xlink="http://www.w3.org/1999/xlink" width="500" zoomAndPan="magnify" viewBox="0 0 375 374.999991" height="500" preserveAspectRatio="xMidYMid meet" version="1.0"><defs><g/></defs><g fill="#30363d" fill-opacity="1"><g transform="translate(76.337313, 310.374446)"><g><path d="M 75.453125 4.140625 C 64.117188 4.140625 55.617188 1.722656 49.953125 -3.109375 C 44.296875 -7.941406 40.566406 -14.710938 38.765625 -23.421875 C 36.972656 -32.128906 36.078125 -43.53125 36.078125 -57.625 L 36.078125 -178.703125 L 7.875 -178.703125 C 7.875 -186.160156 8.007812 -192.171875 8.28125 -196.734375 C 8.5625 -201.296875 9.1875 -204.195312 10.15625 -205.4375 C 11.125 -206.6875 12.710938 -207.3125 14.921875 -207.3125 L 36.078125 -207.3125 L 36.078125 -270.328125 C 36.078125 -274.191406 36.972656 -276.882812 38.765625 -278.40625 C 40.566406 -279.925781 43.46875 -280.894531 47.46875 -281.3125 C 51.476562 -281.726562 58.734375 -281.9375 69.234375 -281.9375 L 69.234375 -207.3125 L 112.359375 -207.3125 C 112.359375 -199.84375 112.21875 -193.757812 111.9375 -189.0625 C 111.664062 -184.363281 111.046875 -181.460938 110.078125 -180.359375 C 109.109375 -179.253906 107.519531 -178.703125 105.3125 -178.703125 L 69.234375 -178.703125 L 69.234375 -57.625 C 69.234375 -46.289062 70.128906 -37.929688 71.921875 -32.546875 C 73.722656 -27.160156 77.941406 -24.46875 84.578125 -24.46875 C 89.003906 -24.46875 92.875 -24.945312 96.1875 -25.90625 C 99.507812 -26.875 103.65625 -28.46875 108.625 -30.6875 C 110.28125 -25.15625 111.109375 -19.625 111.109375 -14.09375 C 111.109375 -7.457031 107.65625 -2.757812 100.75 0 C 93.84375 2.757812 85.410156 4.140625 75.453125 4.140625 Z M 75.453125 4.140625 "/></g></g></g><g fill="#30363d" fill-opacity="1"><g transform="translate(136.616216, 310.374446)"><g><path d="M 34 -179.109375 L 5.390625 -179.109375 C 5.390625 -186.578125 5.523438 -192.585938 5.796875 -197.140625 C 6.078125 -201.703125 6.703125 -204.535156 7.671875 -205.640625 C 8.640625 -206.753906 10.644531 -207.3125 13.6875 -207.3125 L 34 -207.3125 L 34 -232.59375 C 34 -261.34375 40.5625 -280.828125 53.6875 -291.046875 C 66.820312 -301.273438 83.335938 -306.390625 103.234375 -306.390625 C 115.671875 -306.390625 125.207031 -304.867188 131.84375 -301.828125 C 138.476562 -298.796875 141.796875 -294.648438 141.796875 -289.390625 C 141.796875 -283.035156 140.550781 -276.957031 138.0625 -271.15625 C 130.050781 -274.46875 120.238281 -276.125 108.625 -276.125 C 95.632812 -276.125 85.476562 -273.359375 78.15625 -267.828125 C 70.832031 -262.304688 67.171875 -251.390625 67.171875 -235.078125 L 67.171875 -207.3125 L 104.484375 -207.3125 C 104.484375 -199.84375 104.34375 -193.828125 104.0625 -189.265625 C 103.789062 -184.703125 103.238281 -181.867188 102.40625 -180.765625 C 101.582031 -179.660156 99.925781 -179.109375 97.4375 -179.109375 L 67.171875 -179.109375 L 67.171875 -6.640625 C 67.171875 -5.253906 66.6875 -3.800781 65.71875 -2.28125 C 64.75 -0.757812 62.882812 0 60.125 0 L 34 0 Z M 34 -179.109375 "/></g></g></g><g fill="#30363d" fill-opacity="1"><g transform="translate(151.886947, 371.53261)"><g><path d="M 19.078125 -289.390625 C 19.078125 -294.648438 19.972656 -298.316406 21.765625 -300.390625 C 23.566406 -302.460938 26.539062 -303.703125 30.6875 -304.109375 C 34.832031 -304.523438 42.15625 -304.734375 52.65625 -304.734375 L 52.65625 -192.375 C 59.84375 -198.175781 68.132812 -202.804688 77.53125 -206.265625 C 86.925781 -209.722656 96.046875 -211.453125 104.890625 -211.453125 C 128.390625 -211.453125 140.140625 -199.566406 140.140625 -175.796875 C 140.140625 -160.585938 136.472656 -147.660156 129.140625 -137.015625 C 121.816406 -126.378906 113.875 -117.882812 105.3125 -111.53125 C 116.09375 -106.832031 125.28125 -98.539062 132.875 -86.65625 C 140.476562 -74.769531 145.109375 -59.707031 146.765625 -41.46875 C 147.046875 -38.695312 147.1875 -34.132812 147.1875 -27.78125 C 147.1875 -21.144531 146.769531 -14.097656 145.9375 -6.640625 C 145.664062 -4.148438 144.90625 -2.488281 143.65625 -1.65625 C 142.414062 -0.832031 138.820312 -0.347656 132.875 -0.203125 C 126.9375 -0.0664062 118.71875 0 108.21875 0 C 109.320312 -8.019531 109.875 -16.585938 109.875 -25.703125 C 109.875 -34.273438 109.179688 -42.707031 107.796875 -51 C 105.304688 -65.375 101.226562 -76.148438 95.5625 -83.328125 C 89.894531 -90.515625 83.332031 -94.109375 75.875 -94.109375 C 73.9375 -94.109375 72.414062 -93.972656 71.3125 -93.703125 C 68.269531 -93.148438 64.675781 -91.90625 60.53125 -89.96875 C 56.382812 -88.03125 53.757812 -86.648438 52.65625 -85.828125 L 52.65625 -6.640625 C 52.65625 -4.148438 52.238281 -2.488281 51.40625 -1.65625 C 50.582031 -0.832031 47.40625 -0.347656 41.875 -0.203125 C 36.34375 -0.0664062 28.742188 0 19.078125 0 Z M 52.65625 -109.875 C 86.375 -123.414062 103.234375 -141.65625 103.234375 -164.59375 C 103.234375 -175.65625 98.117188 -181.1875 87.890625 -181.1875 C 75.179688 -181.1875 63.4375 -174.550781 52.65625 -161.28125 Z M 52.65625 -109.875 "/></g></g></g></svg>