<svg xmlns="http://www.w3.org/2000/svg" xmlns:xlink="http://www.w3.org/1999/xlink" width="500" zoomAndPan="magnify" viewBox="0 0 375 374.999991" height="500" preserveAspectRatio="xMidYMid meet" version="1.0"><defs><g/></defs><g fill="#30363d" fill-opacity="1"><g transform="translate(76.337313, 308.735281)"><g><path d="M 71.734375 4.140625 C 59.847656 4.140625 50.863281 1.929688 44.78125 -2.484375 C 38.695312 -6.910156 34.546875 -13.269531 32.328125 -21.5625 C 30.117188 -29.851562 29.015625 -40.769531 29.015625 -54.3125 L 29.015625 -168.328125 L 3.734375 -168.328125 C 3.734375 -181.046875 3.867188 -189.890625 4.140625 -194.859375 C 4.421875 -199.835938 5.179688 -203.15625 6.421875 -204.8125 C 7.671875 -206.476562 9.953125 -207.3125 13.265625 -207.3125 L 29.015625 -207.3125 L 29.015625 -267.421875 C 29.015625 -272.398438 30.257812 -275.851562 32.75 -277.78125 C 35.238281 -279.71875 39.316406 -280.894531 44.984375 -281.3125 C 50.648438 -281.726562 60.671875 -281.9375 75.046875 -281.9375 L 75.046875 -207.3125 L 109.046875 -207.3125 C 109.046875 -194.3125 108.90625 -185.394531 108.625 -180.5625 C 108.351562 -175.726562 107.59375 -172.476562 106.34375 -170.8125 C 105.101562 -169.15625 102.960938 -168.328125 99.921875 -168.328125 L 75.046875 -168.328125 L 75.046875 -55.140625 C 75.046875 -48.503906 75.597656 -43.457031 76.703125 -40 C 77.804688 -36.550781 80.570312 -34.828125 85 -34.828125 C 91.90625 -34.828125 99.085938 -36.625 106.546875 -40.21875 C 108.484375 -31.09375 109.453125 -23.769531 109.453125 -18.25 C 109.453125 -3.320312 96.878906 4.140625 71.734375 4.140625 Z M 71.734375 4.140625 "/></g></g></g><g fill="#30363d" fill-opacity="1"><g transform="translate(136.616216, 308.735281)"><g><path d="M 29.015625 -169.15625 L 4.140625 -169.15625 C 4.140625 -182.425781 4.273438 -191.410156 4.546875 -196.109375 C 4.828125 -200.804688 5.726562 -203.847656 7.25 -205.234375 C 8.769531 -206.617188 11.46875 -207.3125 15.34375 -207.3125 L 29.015625 -207.3125 L 29.015625 -230.9375 C 29.015625 -259.957031 35.785156 -279.71875 49.328125 -290.21875 C 62.878906 -300.726562 80.160156 -305.984375 101.171875 -305.984375 C 114.429688 -305.984375 124.65625 -304.1875 131.84375 -300.59375 C 139.03125 -297 142.625 -291.609375 142.625 -284.421875 C 142.625 -276.128906 141.101562 -267.835938 138.0625 -259.546875 C 130.601562 -263.140625 121.207031 -264.9375 109.875 -264.9375 C 98.539062 -264.9375 89.898438 -262.863281 83.953125 -258.71875 C 78.015625 -254.570312 75.046875 -246.96875 75.046875 -235.90625 L 75.046875 -207.3125 L 105.3125 -207.3125 C 105.3125 -194.863281 105.101562 -186.148438 104.6875 -181.171875 C 104.269531 -176.203125 103.507812 -172.957031 102.40625 -171.4375 C 101.300781 -169.914062 99.367188 -169.15625 96.609375 -169.15625 L 75.046875 -169.15625 L 75.046875 -8.296875 C 75.046875 -6.910156 74.5625 -5.179688 73.59375 -3.109375 C 72.625 -1.035156 70.34375 0 66.75 0 L 29.015625 0 Z M 29.015625 -169.15625 "/></g></g></g><g fill="#30363d" fill-opacity="1"><g transform="translate(151.886947, 369.89345)"><g><path d="M 13.6875 -284.421875 C 13.6875 -291.328125 14.925781 -296.09375 17.40625 -298.71875 C 19.894531 -301.351562 23.972656 -303.015625 29.640625 -303.703125 C 35.304688 -304.390625 45.46875 -304.734375 60.125 -304.734375 L 60.125 -199.421875 C 74.21875 -207.441406 89.003906 -211.453125 104.484375 -211.453125 C 117.191406 -211.453125 126.101562 -208.066406 131.21875 -201.296875 C 136.332031 -194.523438 138.890625 -186.160156 138.890625 -176.203125 C 138.890625 -162.390625 136.398438 -150.160156 131.421875 -139.515625 C 126.453125 -128.867188 120.789062 -120.234375 114.4375 -113.609375 C 134.0625 -99.234375 144.148438 -73.109375 144.703125 -35.234375 C 144.703125 -26.117188 144.285156 -16.722656 143.453125 -7.046875 C 143.179688 -4.554688 142.210938 -2.894531 140.546875 -2.0625 C 138.890625 -1.238281 133.773438 -0.6875 125.203125 -0.40625 C 116.640625 -0.132812 105.171875 0 90.796875 0 C 92.179688 -15.75 92.875 -29.847656 92.875 -42.296875 C 92.875 -75.460938 86.789062 -92.046875 74.625 -92.046875 C 71.3125 -92.046875 68.066406 -91.078125 64.890625 -89.140625 C 61.710938 -87.203125 60.125 -86.097656 60.125 -85.828125 L 60.125 -8.296875 C 60.125 -5.253906 59.429688 -3.25 58.046875 -2.28125 C 56.660156 -1.3125 52.234375 -0.6875 44.765625 -0.40625 C 37.304688 -0.132812 26.945312 0 13.6875 0 Z M 60.125 -116.5 C 69.238281 -121.757812 76.003906 -127.703125 80.421875 -134.328125 C 84.847656 -140.960938 87.0625 -149.117188 87.0625 -158.796875 C 87.0625 -166.535156 84.300781 -170.40625 78.78125 -170.40625 C 72.144531 -170.40625 65.925781 -166.394531 60.125 -158.375 Z M 60.125 -116.5 "/></g></g></g></svg>